<svg xmlns="http://www.w3.org/2000/svg" viewBox="0 0 250 60"><g opacity=".2"><path fill-rule="evenodd" clip-rule="evenodd" d="M62.9 1.2c7.1.4 12.8 2.5 14.3 8.5.9 3.4-.1 6.9-1.3 9.4-1.3 2.7-2.7 4.8-4.5 6.9-3.4 4-7.6 7.3-12.2 10.4-4.6 3-9.6 5.6-15 7.7-2.6 1-5.5 2-8.7 2.7-3 .7-6.8 1.2-10.1.4-3.1-.7-5.5-2.3-6-5.4-.5-3.4 1.2-6.2 2.7-8.4 3.1-4.5 7.4-7.8 12.3-10.4 4.9-2.7 10.5-4.9 18-4.6-6.1.7-10.2 2.5-14.3 5.1-3.5 2.3-7.7 5.7-9 10.4-.9 3.2.6 5.4 2.8 6.4 2.2 1 5.7 1.1 8.5.8 5.8-.5 10.6-2.6 14.6-4.8 6.1-3.4 11.5-7.9 15.2-14 1.2-2 2.3-4.3 2.9-6.8 1.4-6.8-1.9-10.5-6.8-12-4.9-1.6-12.1-.8-17.1.5C39 6.7 31 11.6 23.8 17.5c-3.5 2.8-6.7 6.1-9.7 9.7-2.9 3.6-5.5 7.6-7.2 12.1-.9 2.5-1.6 5.3-1.2 8.3 1 8 9.4 10.4 18.9 9.9 12-.7 21.1-4.8 29.4-9.4-7.5 4.6-16.6 9-27.2 10.6-11.9 2-24.5-.2-25.3-11.3v-2c.8-7.5 4.4-13 8-17.6 3.9-5 8.2-8.9 13.1-12.5 4.8-3.7 10.3-6.8 16.3-9.3C45 3.5 51.8 1.6 59.7 1.2h3.2M66 15.1c-.6 1.4-1.5 2.9-2.2 4.4 1.9.2 4 .2 6 .4-2.4.9-4.9 1.7-7.4 2.5-.8 1.6-1.7 3.2-2.5 4.8-.8-1-1.4-2.2-2.2-3.2l-7.2 2.4c2-1.4 4-2.9 6-4.3-.6-1-1.3-2-1.9-3 1.4.1 2.8.2 4.2.2.5 0 1 .2 1.4.1.4-.1 1.1-.7 1.5-1 1.4-1.2 2.9-2.3 4.3-3.3"/><path d="M82 27h-1.7v-2.5H82v-2.2h3.5v2.2h5.4V27h-5.4v3.6c0 .4.1.6.4.7.2.1.6.2 1 .2.6 0 .9-.1 1.1-.2.2-.2.3-.4.3-.9v-.6h3v1.1c0 .4-.1.8-.2 1.2-.2.4-.4.7-.7 1-.3.3-.7.5-1.2.7-.5.2-1.1.2-1.8.2H86c-.5 0-1 0-1.5-.1s-.9-.3-1.3-.5-.7-.6-.9-1c-.2-.4-.3-.9-.3-1.6V27zm18.2-7h3.5v2.7h-3.5V20zm-5 0h3.5v2.7h-3.5V20zm10.4 13.8h-3.5v-1.5c-.3.6-.8 1.1-1.4 1.3-.6.2-1.4.3-2.3.3h-1.1c-.4 0-.8-.1-1.2-.1-.4-.1-.7-.2-1.1-.4-.4-.2-.7-.4-.9-.7-.3-.3-.5-.7-.6-1.1-.2-.5-.2-1-.2-1.7v-5.3h3.5v5.3c0 .9.7 1.4 2.2 1.4h.8c.7 0 1.3-.2 1.8-.5.4-.3.6-.8.6-1.5v-4.7h3.5v9.2zm2.4-9.3h3.3v1.8c.1-.4.3-.7.5-.9.2-.2.5-.4.8-.6.3-.1.6-.2 1-.3.4-.1.7-.1 1.1-.1 1.3 0 2.2.3 2.7.9.5.6.8 1.5.8 2.8v.8h-3c0-.3 0-.5-.1-.8 0-.2-.1-.4-.2-.5-.1-.1-.3-.3-.5-.3-.2-.1-.5-.1-.9-.1-.6 0-1.1.1-1.5.4-.4.2-.6.6-.6 1.2v5.1H108v-9.4zm12.1-3.9h3.5v7h.6l3.1-3.1h4.6l-4.7 4.4 5.2 4.9H128l-3.7-3.7h-.7v3.7h-3.5zm17.6 13.2h-3.5v-9.3h3.5v9.3zm0-10.4h-3.5v-2.7h3.5v2.7zm4.3 11.3h.3c.7 0 1.2-.1 1.7-.3.4-.2.6-.5.6-1.1h-1.2l-4.2-8.9h3.8l2.7 6.4 2.7-6.4h3.8l-5.2 11c-.3.6-.7 1-1.2 1.2-.5.2-1.2.3-2.1.3h-1.4v-2.2zm19.4-6.8c0-.3 0-.5-.1-.7-.1-.2-.2-.3-.4-.4-.2-.1-.5-.2-.8-.2h-2.7c-.3 0-.6.1-.8.2-.2.1-.3.2-.3.4-.1.2-.1.4-.1.7h5.2zm-8.6.7c0-.9.1-1.6.3-2.1.2-.6.5-1 .9-1.3.4-.3.8-.5 1.4-.6.5-.1 1.1-.2 1.7-.2h2.4c.9 0 1.7.1 2.4.2s1.2.3 1.6.6c.4.3.7.7.9 1.2s.3 1.2.3 2V30h-8.5v.6c0 .5.2.8.5 1 .4.2.9.3 1.6.3h1.1c.5 0 .8 0 1.1-.1.3-.1.5-.1.6-.2.1-.1.2-.2.2-.3v-.4h3.3v.4c0 .6-.1 1.1-.4 1.4-.2.4-.6.7-1 .9-.4.2-.9.3-1.5.4-.6.1-1.1.1-1.8.1h-2.6c-.6 0-1.2 0-1.7-.1-.6-.1-1.1-.3-1.5-.6-.4-.3-.8-.7-1.1-1.3-.3-.6-.4-1.4-.4-2.4v-1.1zm15.3 1.5h3.8v3.7h-3.8zm14.5.5c.4 0 .8 0 1.1-.1.3-.1.5-.2.6-.3.2-.1.3-.3.3-.6.1-.2.1-.5.1-.9s0-.6-.1-.9l-.3-.6c-.2-.1-.4-.3-.6-.3-.3-.1-.6-.1-1.1-.1h-1.7c-.4 0-.8 0-1.1.1-.3.1-.5.2-.6.3-.2.1-.3.3-.3.6-.1.2-.1.5-.1.9s0 .6.1.9l.3.6.6.3c.3.1.6.1 1.1.1h1.7zm-7.2-2.6c0-.7.1-1.3.3-1.8.2-.5.4-.8.8-1.1.4-.3.8-.5 1.3-.6.5-.1 1.1-.2 1.8-.2h2c.4 0 .8 0 1.1.1.3 0 .5.1.8.2.2.1.4.2.6.4.2.2.4.4.6.7v-1.3h3.3v8.7c0 .5-.1 1-.2 1.4-.1.5-.3.9-.7 1.2-.4.4-.9.6-1.5.9-.7.2-1.5.3-2.6.3h-3.8c-.6 0-1.1 0-1.6-.1s-.8-.2-1.2-.4c-.3-.2-.5-.5-.7-.9-.2-.4-.2-.9-.2-1.4h3.6c0 .2.1.4.2.5.1.1.4.2.6.2h2.5c.8 0 1.3-.1 1.7-.4.4-.3.6-.8.6-1.6v-.6c-.2.2-.3.3-.5.4l-.6.3c-.2.1-.5.1-.8.2-.3 0-.7.1-1.2.1h-1.8c-.8 0-1.6-.1-2.1-.2-.6-.2-1-.4-1.4-.7-.3-.3-.6-.7-.7-1.2-.1-.5-.2-1-.2-1.7V28zm18.3 1.6c0 .7.2 1.1.6 1.4.4.2 1 .4 1.8.4h.8c.6 0 1 0 1.4-.1.4 0 .6-.1.8-.2.2-.1.3-.3.4-.5.1-.2.1-.4.1-.8v-1.3c0-.3 0-.6-.1-.8-.1-.2-.2-.4-.4-.5-.2-.1-.5-.2-.8-.2-.4 0-.8-.1-1.4-.1h-.8c-.8 0-1.4.1-1.8.4-.4.2-.6.7-.6 1.4v.9zm-3.5-1.6c0-.8.1-1.4.3-1.9.2-.5.5-.8.9-1.1.4-.3.8-.4 1.2-.5.5-.1.9-.1 1.4-.1h5.2c.4 0 .9 0 1.4.1.5.1.9.3 1.2.5.4.3.7.6.9 1.1.2.5.3 1.1.3 1.9v2.2c0 .8-.1 1.4-.3 1.9-.2.5-.5.8-.9 1.1-.4.3-.8.4-1.2.5-.5.1-.9.1-1.4.1H194c-.4 0-.9 0-1.4-.1-.5-.1-.9-.3-1.2-.5-.4-.3-.7-.6-.9-1.1-.2-.5-.3-1.1-.3-1.9V28zm14-3.5h3.7l2.9 6.6 2.8-6.6h3.8l-4.5 9.3h-4.3zm14.5 5.6h3.8v3.7h-3.8zm8.5-3.1h-1.7v-2.5h1.7v-2.2h3.5v2.2h5.4V27h-5.4v3.6c0 .4.1.6.4.7.2.1.6.2 1 .2.6 0 .9-.1 1.1-.2.2-.2.3-.4.3-.9v-.6h3v1.1c0 .4-.1.8-.2 1.2-.2.4-.4.7-.7 1-.3.3-.7.5-1.2.7-.5.2-1.1.2-1.8.2h-1.4c-.5 0-1 0-1.5-.1s-.9-.3-1.3-.5-.7-.6-.9-1c-.2-.4-.3-.9-.3-1.6V27zm11.2-2.5h3.3v1.8c.1-.4.3-.7.5-.9.2-.2.5-.4.8-.6.3-.1.6-.2 1-.3.4-.1.7-.1 1.1-.1 1.3 0 2.2.3 2.7.9.5.6.8 1.5.8 2.8v.8h-3c0-.3 0-.5-.1-.8 0-.2-.1-.4-.2-.5-.1-.1-.3-.3-.5-.3-.2-.1-.5-.1-.9-.1-.6 0-1.1.1-1.5.4-.4.2-.6.6-.6 1.2v5.1h-3.5v-9.4zm-46.1 12.7v-.3c0-.1.1-.2.1-.2.1-.1.2-.1.3-.1h.6v.4h-.2c-.2 0-.2.1-.2.2v.2h.2v.9h-.9v-1.1zm-1.3 0v-.3c0-.1.1-.2.1-.2.1-.1.2-.1.3-.1h.6v.4h-.2c-.2 0-.2.1-.2.2v.2h.2v.9h-.8v-1.1zm4 1.7h2.1c.1 0 .1 0 .2-.1 0 0 .1-.1.1-.2v-1c0-.1-.1-.1-.1-.2 0 0-.1-.1-.2-.1H195v1.6zm-1-2.4h3c.2 0 .5 0 .6.1.2 0 .3.1.4.2.1.1.2.2.2.4 0 .1.1.3.1.5v1c0 .2 0 .4-.1.5 0 .1-.1.3-.2.4-.1.1-.2.2-.4.2s-.4.1-.6.1h-3v-3.4zm7 1.8v-.2l-.1-.1h-1l-.1.1v.2h1.2zm-2.1.2c0-.2 0-.4.1-.5.1-.1.1-.2.2-.3.1-.1.2-.1.3-.2h1.6c.2 0 .3.1.4.2.1.1.2.2.2.3 0 .1.1.3.1.5v.4h-2.1v.1c0 .1 0 .2.1.2s.2.1.4.1h.6c.1 0 .1 0 .1-.1l.1-.1V39h.8v.1c0 .1 0 .3-.1.4-.1.1-.1.2-.2.2-.1.1-.2.1-.4.1h-1.5c-.1 0-.3-.1-.4-.1l-.3-.3c-.1-.1-.1-.3-.1-.6v-.3zm3.1-1h1l.7 1.6.7-1.6h.9l-1.1 2.3h-1zm3.7-1h.9v3.3h-.9zm3.5 1.8v-.2l-.1-.1h-1l-.1.1v.2h1.2zm-2.1.2c0-.2 0-.4.1-.5.1-.1.1-.2.2-.3.1-.1.2-.1.3-.2h1.6c.2 0 .3.1.4.2.1.1.2.2.2.3 0 .1.1.3.1.5v.4h-2v.1c0 .1 0 .2.1.2s.2.1.4.1h.6c.1 0 .1 0 .1-.1l.1-.1V39h.8v.1c0 .1 0 .3-.1.4-.1.1-.1.2-.2.2-.1.1-.2.1-.4.1H208c-.1 0-.3-.1-.4-.1l-.3-.3c-.1-.1-.1-.3-.1-.6v-.3zm3.7-.4h-.4v-.6h.4V37h.9v.5h1.3v.6h-1.3v.9c0 .1 0 .1.1.2h.2c.1 0 .2 0 .3-.1 0 0 .1-.1.1-.2v-.2h.8v.3c0 .1 0 .2-.1.3 0 .1-.1.2-.2.2-.1.1-.2.1-.3.2-.1 0-.3.1-.4.1h-.7c-.1 0-.2-.1-.3-.1-.1-.1-.2-.1-.2-.2-.1-.1-.1-.2-.1-.4v-1zm3.7 1.7h-.9v-2.3h.9v2.3zm0-2.6h-.9v-.7h.9v.7zm.6.3h.9v.4c.1-.2.2-.3.3-.3.2-.1.3-.1.6-.1h.6c.1 0 .2.1.3.1.1 0 .2.1.2.2.1.1.1.2.2.3 0 .1.1.3.1.4v1.3h-.9v-1.3c0-.2-.2-.3-.6-.3h-.2c-.2 0-.3 0-.4.1-.1.1-.2.2-.2.4v1.2h-.9v-2.4zm6-1h1v1.2h.4l1.3-1.2h1.4l-1.8 1.6 2 1.7H224l-1.5-1.3h-.4v1.3h-1zm4.7 1h.9v2.3h-.9zm2.3 1.5c0 .1 0 .1 0 0 0 .1 0 .1.1.2h1.3s.1 0 .1-.1V39c0-.1 0-.1-.1-.1h-1.6c-.1 0-.2-.1-.3-.1l-.2-.2v-.4c0-.1 0-.3.1-.3.1-.1.1-.2.2-.2s.2-.1.3-.1h1.7c.2 0 .3.1.4.1.1.1.2.1.2.2s.1.2.1.3h-.9v-.1h-1.1s-.1 0-.1.1v.2h1.2c.3 0 .5 0 .6.1.1 0 .3.1.3.2.1.1.1.1.1.2v.3c0 .2 0 .3-.1.4 0 .1-.1.2-.2.2-.1.1-.2.1-.4.1h-1.9c-.1 0-.3-.1-.3-.1l-.2-.2c0-.1-.1-.2-.1-.4h.8zm4.1.2h.6s.1 0 .1-.1v-.2s0-.1-.1-.1h-1c-.1 0-.1 0-.1.1 0 0-.1 0-.1.1v.1c0 .1 0 .1.1.2h.5zm-1.5-.3c0-.2 0-.3.1-.4.1-.1.1-.2.2-.2s.2-.1.4-.1h1.2c.1 0 .1 0 .2.1.1 0 .1.1.1.1v-.3s0-.1-.1-.1c0 0-.1 0-.1-.1h-1s-.1.1-.1.2h-.8c0-.2 0-.3.1-.4 0-.1.1-.2.2-.2.1-.1.2-.1.3-.1h1.5c.3 0 .5.1.7.2.2.1.2.3.2.6v1.5h-.8v-.3l-.2.2-.1.1h-1.5c-.1 0-.2 0-.3-.1-.1 0-.1-.1-.2-.2 0-.1-.1-.2-.1-.3v-.2zm4 1.1c.2 0 .4 0 .5-.1.1 0 .2-.1.2-.3h-.4l-1.1-2.2h.9l.7 1.6.7-1.6h.9l-1.3 2.7-.3.3c-.1.1-.3.1-.5.1h-.3V40zm3.6-1.3c0 .2 0 .3.1.3.1.1.2.1.4.1h.5c.1 0 .2 0 .2-.1.1 0 .1-.1.1-.1v-.7s0-.1-.1-.1c0 0-.1 0-.2-.1h-.5c-.2 0-.3 0-.4.1-.1.1-.1.2-.1.3v.3zm-.9-.4c0-.2 0-.3.1-.5.1-.1.1-.2.2-.3.1-.1.2-.1.3-.1h1.9c.1 0 .2.1.3.1.1.1.2.2.2.3.1.1.1.3.1.5v.5c0 .2 0 .3-.1.5-.1.1-.1.2-.2.3-.1.1-.2.1-.3.1H238c-.1 0-.2-.1-.3-.1-.1-.1-.2-.2-.2-.3-.1-.1-.1-.3-.1-.5v-.5zm3.8-1.8h.9v3.3h-.9zm4.6 3.3h-.9v-.4c-.1.2-.2.3-.3.3-.2.1-.3.1-.6.1h-.6c-.1 0-.2-.1-.3-.1-.1 0-.2-.1-.2-.2-.1-.1-.1-.2-.2-.3 0-.1-.1-.3-.1-.4v-1.3h.9v1.3c0 .2.2.3.6.3h.2c.2 0 .3 0 .4-.1.1-.1.2-.2.2-.4v-1.2h.9v2.4zm1.9-2h.2c.2 0 .2-.1.2-.2v-.2h-.2v-.9h.9v1.4c0 .1-.1.2-.1.2-.1.1-.2.1-.3.1h-.6v-.4zm-1.3 0h.2c.2 0 .2-.1.2-.2v-.2h-.2v-.9h.9v1.4c0 .1-.1.2-.1.2-.1.1-.2.1-.3.1h-.6v-.4z"/></g><g class="logoSprite" fill="#fff"><path fill-rule="evenodd" clip-rule="evenodd" d="M62.6.6s0 .1 0 0c7.1.4 12.8 2.5 14.3 8.5.9 3.4-.1 6.9-1.3 9.4-1.3 2.7-2.7 4.8-4.5 6.9-3.5 4.1-7.6 7.4-12.3 10.4-4.6 3-9.6 5.6-15 7.7-2.6 1-5.5 2-8.7 2.7-3 .7-6.8 1.2-10.1.4-3.1-.7-5.5-2.3-6-5.4-.5-3.4 1.2-6.2 2.7-8.4 3.1-4.5 7.4-7.8 12.3-10.4 4.9-2.7 10.5-4.9 18-4.6-6.1.7-10.2 2.5-14.3 5.1-3.5 2.3-7.7 5.7-9 10.4-.9 3.2.6 5.4 2.8 6.4 2.2 1 5.7 1.1 8.5.8 5.8-.5 10.6-2.6 14.6-4.8 6.1-3.4 11.5-7.9 15.2-14 1.2-2 2.3-4.3 2.9-6.8 1.4-6.8-1.9-10.5-6.8-12s-12.1-.7-17.1.6c-10.1 2.7-18.2 7.6-25.4 13.4-3.5 2.8-6.7 6.1-9.7 9.7-2.9 3.6-5.5 7.6-7.2 12.1C5.7 41.2 5 44 5.4 47c1 8 9.4 10.4 18.9 9.9 12-.7 21.1-4.8 29.4-9.4-7.5 4.6-16.6 9-27.2 10.6-11.9 2-24.5-.2-25.3-11.3v-2c.8-7.5 4.4-13 8-17.6 3.9-5 8.2-8.9 13.1-12.5 4.8-3.7 10.3-6.8 16.3-9.3C44.6 2.9 51.5 1 59.3.6h3.3m3.1 13.9c-.6 1.4-1.5 2.9-2.2 4.4 1.9.2 4 .2 6 .4-2.4.9-4.9 1.7-7.4 2.5-.8 1.6-1.7 3.2-2.5 4.8-.8-1-1.4-2.2-2.2-3.2l-7.2 2.4c2-1.4 4-2.9 6-4.3-.6-1-1.3-2-1.9-3 1.4.1 2.8.2 4.2.2.5 0 1 .2 1.4.1.4-.1 1.1-.7 1.5-1 1.4-1.1 2.9-2.3 4.3-3.3"/><path d="M81.7 26.5H80V24h1.7v-2.2h3.5V24h5.4v2.5h-5.4V30c0 .4.1.6.4.7.2.1.6.2 1 .2.6 0 .9-.1 1.1-.2.2-.2.3-.4.3-.9v-.6h3v1.1c0 .4-.1.8-.2 1.2-.2.4-.4.7-.7 1-.3.3-.7.5-1.2.7-.5.2-1.1.2-1.8.2h-1.4c-.5 0-1 0-1.5-.1s-.9-.3-1.3-.5-.7-.6-.9-1c-.2-.4-.3-.9-.3-1.6v-3.7zm18.2-7.1h3.5v2.7h-3.5v-2.7zm-5 0h3.5v2.7h-3.5v-2.7zm10.4 13.8h-3.5v-1.5c-.3.6-.8 1.1-1.4 1.3-.6.2-1.4.3-2.3.3H97c-.4 0-.8-.1-1.2-.1-.4-.1-.7-.2-1.1-.4-.4-.2-.7-.4-.9-.7-.3-.3-.5-.7-.6-1.1-.2-.5-.2-1-.2-1.7V24h3.5v5.3c0 .9.7 1.4 2.2 1.4h.8c.7 0 1.3-.2 1.8-.5.4-.3.6-.8.6-1.5V24h3.5v9.2zm2.4-9.2h3.3v1.8c.1-.4.3-.7.5-.9.2-.2.5-.4.8-.6.3-.1.6-.2 1-.3.4-.1.7-.1 1.1-.1 1.3 0 2.2.3 2.7.9.5.6.8 1.5.8 2.8v.8h-3c0-.3 0-.5-.1-.8 0-.2-.1-.4-.2-.5-.1-.1-.3-.3-.5-.3-.2-.1-.5-.1-.9-.1-.6 0-1.1.1-1.5.4-.4.2-.6.6-.6 1.2v5.1h-3.5V24zm12.1-3.9h3.5V27h.7l3-3h4.6l-4.6 4.3 5.2 4.9h-4.5l-3.7-3.7h-.7v3.7h-3.5zm17.6 13.1h-3.5V24h3.5v9.2zm0-10.4h-3.5v-2.7h3.5v2.7zm4.4 11.4h.3c.7 0 1.2-.1 1.7-.3.4-.2.6-.5.6-1.1h-1.2l-4.2-8.9h3.8l2.7 6.4 2.7-6.4h3.8l-5.2 11c-.3.6-.7 1-1.2 1.2-.5.2-1.2.3-2.1.3h-1.4v-2.2zm19.3-6.9c0-.3 0-.5-.1-.7-.1-.2-.2-.3-.4-.4-.2-.1-.5-.2-.8-.2h-2.7c-.3 0-.6.1-.8.2-.2.1-.3.2-.3.4-.1.2-.1.4-.1.7h5.2zm-8.6.8c0-.9.1-1.6.3-2.1.2-.6.5-1 .9-1.3.4-.3.8-.5 1.4-.6.5-.1 1.1-.2 1.7-.2h2.4c.9 0 1.7.1 2.4.2s1.2.3 1.6.6c.4.3.7.7.9 1.2.2.5.3 1.2.3 2v1.6H156v.6c0 .5.2.8.5 1 .4.2.9.3 1.6.3h1.1c.5 0 .8 0 1.1-.1.3-.1.5-.1.6-.2.1-.1.2-.2.2-.3v-.4h3.3v.4c0 .6-.1 1.1-.4 1.4-.2.4-.6.7-1 .9-.4.2-.9.3-1.5.4-.6.1-1.1.1-1.8.1h-2.6c-.6 0-1.2 0-1.7-.1-.6-.1-1.1-.3-1.5-.6-.4-.3-.8-.7-1.1-1.3-.3-.6-.4-1.4-.4-2.4v-1.1zm15.3 1.4h3.8v3.7h-3.8zm14.6.6c.4 0 .8 0 1.1-.1.3-.1.5-.2.6-.3.2-.1.3-.3.3-.6.1-.2.1-.5.1-.9s0-.6-.1-.9l-.3-.6c-.2-.1-.4-.3-.6-.3-.3-.1-.6-.1-1.1-.1h-1.7c-.4 0-.8 0-1.1.1-.3.1-.5.2-.6.3-.2.1-.3.3-.3.6-.1.2-.1.5-.1.9s0 .6.1.9l.3.6.6.3c.3.1.6.1 1.1.1h1.7zm-7.2-2.7c0-.7.1-1.3.3-1.8.2-.5.4-.8.8-1.1.4-.3.8-.5 1.3-.6.5-.1 1.1-.2 1.8-.2h2c.4 0 .8 0 1.1.1.3 0 .5.1.8.2.2.1.4.2.6.4.2.2.4.4.6.7V24h3.3v8.7c0 .5-.1 1-.2 1.4-.1.5-.3.9-.7 1.2-.4.4-.9.6-1.5.9-.7.2-1.5.3-2.6.3H179c-.6 0-1.1 0-1.6-.1s-.8-.2-1.2-.4c-.3-.2-.5-.5-.7-.9-.2-.4-.2-.9-.2-1.4h3.6c0 .2.1.4.2.5.1.1.4.2.6.2h2.5c.8 0 1.3-.1 1.7-.4.4-.3.6-.8.6-1.6v-.6c-.2.2-.3.3-.5.4l-.6.3c-.2.1-.5.1-.8.2-.3 0-.7.1-1.2.1h-1.8c-.8 0-1.6-.1-2.1-.2-.6-.2-1-.4-1.4-.7-.3-.3-.6-.7-.7-1.2-.1-.5-.2-1-.2-1.7v-1.6zm18.2 1.6c0 .7.2 1.1.6 1.4.4.2 1 .4 1.8.4h.8c.6 0 1 0 1.4-.1.4 0 .6-.1.8-.2.2-.1.3-.3.4-.5.1-.2.1-.4.1-.8V28c0-.3 0-.6-.1-.8-.1-.2-.2-.4-.4-.5-.2-.1-.5-.2-.8-.2-.4 0-.8-.1-1.4-.1h-.8c-.8 0-1.4.1-1.8.4-.4.2-.6.7-.6 1.4v.8zm-3.5-1.5c0-.8.1-1.4.3-1.9.2-.5.5-.8.9-1.1.4-.3.8-.4 1.2-.5.5-.1.9-.1 1.4-.1h5.2c.4 0 .9 0 1.4.1.5.1.9.3 1.2.5.4.3.7.6.9 1.1.2.5.3 1.1.3 1.9v2.2c0 .8-.1 1.4-.3 1.9-.2.5-.5.8-.9 1.1-.4.3-.8.4-1.2.5-.5.1-.9.1-1.4.1h-5.2c-.4 0-.9 0-1.4-.1-.5-.1-.9-.3-1.2-.5-.4-.3-.7-.6-.9-1.1-.2-.5-.3-1.1-.3-1.9v-2.2zm14-3.5h3.8l2.8 6.5 2.8-6.5h3.8l-4.4 9.2h-4.4zm14.6 5.5h3.8v3.7h-3.8zm8.4-3h-1.7V24h1.7v-2.2h3.5V24h5.4v2.5h-5.4V30c0 .4.1.6.4.7.2.1.6.2 1 .2.6 0 .9-.1 1.1-.2.2-.2.3-.4.3-.9v-.6h3v1.1c0 .4-.1.8-.2 1.2-.2.4-.4.7-.7 1-.3.3-.7.5-1.2.7-.5.2-1.1.2-1.8.2h-1.4c-.5 0-1 0-1.5-.1s-.9-.3-1.3-.5-.7-.6-.9-1c-.2-.4-.3-.9-.3-1.6v-3.7zm11.2-2.5h3.3v1.8c.1-.4.3-.7.5-.9.2-.2.5-.4.8-.6.3-.1.6-.2 1-.3.4-.1.7-.1 1.1-.1 1.3 0 2.2.3 2.7.9.5.6.8 1.5.8 2.8v.8h-3c0-.3 0-.5-.1-.8 0-.2-.1-.4-.2-.5-.1-.1-.3-.3-.5-.3-.2-.1-.5-.1-.9-.1-.6 0-1.1.1-1.5.4-.4.2-.6.6-.6 1.2v5.1H238V24zM192 36.7v-.3c0-.1.1-.2.1-.2.1-.1.2-.1.3-.1h.6v.5h-.2c-.2 0-.2.1-.2.2v.2h.2v.9h-.8v-1.2zm-1.3 0v-.3c0-.1.1-.2.1-.2.1-.1.2-.1.3-.1h.6v.5h-.2c-.2 0-.2.1-.2.2v.2h.2v.9h-.9v-1.2zm4.1 1.6h2.1c.1 0 .1 0 .2-.1 0 0 .1-.1.1-.2v-1c0-.1-.1-.1-.1-.2 0 0-.1-.1-.2-.1h-2.1v1.6zm-1-2.4h3c.2 0 .5 0 .6.1.2 0 .3.1.4.2.1.1.2.2.2.4 0 .1.1.3.1.5v1c0 .2 0 .4-.1.5 0 .1-.1.3-.2.4-.1.1-.2.2-.4.2s-.4.1-.6.1h-3v-3.4zm6.9 1.8v-.2l-.1-.1h-1l-.1.1v.2h1.2zm-2.1.2c0-.2 0-.4.1-.5.1-.1.1-.2.2-.3.1-.1.2-.1.3-.2h1.6c.2 0 .3.1.4.2.1.1.2.2.2.3 0 .1.1.3.1.5v.4h-2.1v.1c0 .1 0 .2.1.2s.2.1.4.1h.6c.1 0 .1 0 .1-.1l.1-.1v-.1h.8v.1c0 .1 0 .3-.1.4-.1.1-.1.2-.2.2-.1.1-.2.1-.4.1h-1.4c-.1 0-.3-.1-.4-.1l-.3-.3c-.1-.1-.1-.3-.1-.6v-.3zm3.2-1h.9l.7 1.6.7-1.6h1l-1.1 2.3h-1.1zm3.6-1h.9v3.3h-.9zm3.6 1.8v-.2l-.1-.1h-1l-.1.1v.2h1.2zm-2.2.2c0-.2 0-.4.1-.5.1-.1.1-.2.2-.3.1-.1.2-.1.3-.2h1.6c.2 0 .3.1.4.2.1.1.2.2.2.3 0 .1.1.3.1.5v.4h-2.1v.1c0 .1 0 .2.1.2s.2.1.4.1h.6c.1 0 .1 0 .1-.1l.1-.1v-.1h.8v.1c0 .1 0 .3-.1.4-.1.1-.1.2-.2.2-.1.1-.2.1-.4.1h-1.4c-.1 0-.3-.1-.4-.1l-.3-.3c-.1-.1-.1-.3-.1-.6v-.3zm3.7-.4h-.4v-.6h.4v-.5h.9v.5h1.3v.6h-1.3v.9c0 .1 0 .1.1.2h.2c.1 0 .2 0 .3-.1 0 0 .1-.1.1-.2v-.2h.8v.3c0 .1 0 .2-.1.3 0 .1-.1.2-.2.2-.1.1-.2.1-.3.2-.1 0-.3.1-.4.1h-.7c-.1 0-.2-.1-.3-.1-.1-.1-.2-.1-.2-.2-.1-.1-.1-.2-.1-.4v-1zm3.7 1.7h-.9v-2.3h.9v2.3zm0-2.6h-.9v-.7h.9v.7zm.6.3h.9v.4c.1-.2.2-.3.3-.3.2-.1.3-.1.6-.1h.6c.1 0 .2.1.3.1.1 0 .2.1.2.2.1.1.1.2.2.3 0 .1.1.3.1.4v1.3h-.9v-1.3c0-.2-.2-.3-.6-.3h-.2c-.2 0-.3 0-.4.1-.1.1-.2.2-.2.4v1.2h-.9v-2.4zm6-1h1v1.2h.5l1.2-1.2h1.4l-1.8 1.6 2 1.7h-1.4l-1.5-1.3h-.4v1.3h-1zm4.7 1h.9v2.3h-.9zm2.3 1.6c0 .1 0 .1.1.2h1.3s.1 0 .1-.1v-.1c0-.1 0-.1-.1-.1h-1.7c-.1 0-.2-.1-.3-.1l-.2-.2v-.4c0-.1 0-.3.1-.3.1-.1.1-.2.2-.2s.2-.1.3-.1h1.7c.2 0 .3.1.4.1.1.1.2.1.2.2s.1.2.1.3h-1v-.1h-1.1s-.1 0-.1.1v.2h1.2c.3 0 .5 0 .6.1.1 0 .3.1.3.2.1.1.1.1.1.2v.3c0 .2 0 .3-.1.4 0 .1-.1.2-.2.2-.1.1-.2.1-.4.1h-1.8c-.1 0-.3-.1-.3-.1l-.2-.2c0-.1-.1-.2-.1-.4h.9zm4.1.2h.6s.1 0 .1-.1v-.2s0-.1-.1-.1h-1.1c-.1 0-.1 0-.1.1 0 0-.1 0-.1.1v.1c0 .1 0 .1.1.2h.6zm-1.5-.3c0-.2 0-.3.1-.4.1-.1.1-.2.2-.2s.2-.1.4-.1h1.2c.1 0 .1 0 .2.1.1 0 .1.1.1.1v-.3s0-.1-.1-.1c0 0-.1 0-.1-.1h-1s-.1.1-.1.2h-.8c0-.2 0-.3.1-.4 0-.1.1-.2.2-.2.1-.1.2-.1.3-.1h1.5c.3 0 .5.1.7.2.2.1.2.3.2.6v1.5h-.8v-.3l-.2.2-.1.1h-1.5c-.1 0-.2 0-.3-.1-.1 0-.1-.1-.2-.2 0-.1-.1-.2-.1-.3v-.2zm4 1c.2 0 .4 0 .5-.1.1 0 .2-.1.2-.3h-.3l-1.1-2.2h.9l.7 1.6.7-1.6h.9l-1.3 2.7-.3.3c-.1.1-.3.1-.5.1h-.3v-.5zm3.6-1.3c0 .2 0 .3.1.3.1.1.2.1.4.1h.5c.1 0 .2 0 .2-.1.1 0 .1-.1.1-.1v-.7s0-.1-.1-.1c0 0-.1 0-.2-.1h-.5c-.2 0-.3 0-.4.1-.1.1-.1.2-.1.3v.3zm-.8-.3c0-.2 0-.3.1-.5.1-.1.1-.2.2-.3.1-.1.2-.1.3-.1h1.9c.1 0 .2.1.3.1.1.1.2.2.2.3.1.1.1.3.1.5v.5c0 .2 0 .3-.1.5-.1.1-.1.2-.2.3-.1.1-.2.1-.3.1h-1.9c-.1 0-.2-.1-.3-.1-.1-.1-.2-.2-.2-.3-.1-.1-.1-.3-.1-.5v-.5zm3.7-1.9h.9v3.3h-.9zm4.6 3.3h-.9v-.4c-.1.2-.2.3-.3.3-.2.1-.3.1-.6.1h-.6c-.1 0-.2-.1-.3-.1-.1 0-.2-.1-.2-.2-.1-.1-.1-.2-.2-.3 0-.1-.1-.3-.1-.4v-1.3h.9v1.3c0 .2.2.3.6.3h.2c.2 0 .3 0 .4-.1.1-.1.2-.2.2-.4v-1.2h.9v2.4zm2-2h.2c.2 0 .2-.1.2-.2v-.2h-.2v-.9h.9v1.4c0 .1-.1.2-.1.2-.1.1-.2.1-.3.1h-.6v-.4zm-1.4 0h.2c.2 0 .2-.1.2-.2v-.2h-.2v-.9h.9v1.4c0 .1-.1.2-.1.2-.1.1-.2.1-.3.1h-.6v-.4z"/></g></svg>