<svg id="Capa_1" xmlns="http://www.w3.org/2000/svg" viewBox="0 0 216 146"><style>.st0{fill:#565656}</style><path class="st0" d="M172.8 123l-27.9-27.9c6.7-9.7 10.1-20.6 10.1-32.5 0-7.8-1.5-15.2-4.5-22.3-3-7.1-7.1-13.2-12.2-18.3S127.1 12.8 120 9.8c-7.1-3-14.5-4.5-22.3-4.5S82.4 6.7 75.3 9.7c-7.1 3-13.2 7.1-18.3 12.2s-9.2 11.2-12.2 18.3c-3 7.1-4.5 14.5-4.5 22.3s1.5 15.2 4.5 22.3c3 7.1 7.1 13.2 12.2 18.3 5.1 5.1 11.2 9.2 18.3 12.2 7.1 3 14.5 4.5 22.3 4.5 12 0 22.8-3.4 32.5-10.1l27.9 27.9c2 2.1 4.4 3.1 7.3 3.1 2.8 0 5.3-1 7.3-3.1 2.1-2.1 3.1-4.5 3.1-7.3.1-2.8-.9-5.3-2.9-7.3zm-49.4-34.6c-7.1 7.1-15.7 10.7-25.8 10.7-10 0-18.6-3.6-25.8-10.7-7.1-7.1-10.7-15.7-10.7-25.8 0-10 3.6-18.6 10.7-25.8 7.1-7.1 15.7-10.7 25.8-10.7s18.6 3.6 25.8 10.7c7.1 7.1 10.7 15.7 10.7 25.8 0 10-3.6 18.6-10.7 25.8z"/></svg>